<svg xmlns="http://www.w3.org/2000/svg" viewBox="0 0 24 24">
  <rect width="24" height="24" rx="5" fill="#c81e1e"/>
  <g transform="scale(0.7) translate(2.5, 2.5)">
    <path d="M21 8.4L19.5 6.9C19.8 6.3 20 5.7 20 5c0-2.2-1.8-4-4-4S12 2.8 12 5c0 2.1 1.6 3.8 3.7 4L14 11.3 11.4 9.7 10 8l-8 4.4 1 1.7 6.3-3.5 7.3 4.3-1 6-1.2.2-.4-2.8-7 1.2.4 2.8L6.1 23 7 24.8l6.8-1.7.4 2.5C14.8 26.5 15.9 27 17 27c1.9 0 3.5-1.4 3.7-3.3l.3-2c1.2-.5 2-1.7 2-3v-7c0-.9-.4-1.7-1-2.3zM16 3c1.1 0 2 .9 2 2s-.9 2-2 2-2-.9-2-2 .9-2 2-2z" fill="white"/>
  </g>
</svg>
